<svg xmlns="http://www.w3.org/2000/svg" width="24" height="24" viewBox="0 0 24 24"><path fill="#E4405F" d="M12 2.163c3.204 0 3.584.012 4.85.07c1.17.055 1.805.249 2.227.415c.562.217.96.477 1.382.899c.422.422.682.82.899 1.382c.166.422.36 1.057.415 2.227c.058 1.266.07 1.646.07 4.85s-.012 3.584-.07 4.85c-.055 1.17-.249 1.805-.415 2.227c-.217.562-.477.96-.899 1.382c-.422.422-.82.682-1.382.899c-.422.166-1.057.36-2.227.415c-1.266.058-1.646.07-4.85.07s-3.584-.012-4.85-.07c-1.17-.055-1.805-.249-2.227-.415c-.562-.217-.96-.477-1.382-.899c-.422-.422-.682-.82-.899-1.382c-.166-.422-.36-1.057-.415-2.227c-.058-1.266-.07-1.646-.07-4.85s.012-3.584.07-4.85c.055-1.17.249-1.805.415-2.227c.217-.562.477-.96.899-1.382c.422-.422.82-.682 1.382-.899c.422-.166 1.057-.36 2.227-.415c1.266-.058 1.646-.07 4.85-.07zm0 2.883c-3.259 0-3.667.014-4.947.072c-1.104.052-1.513.211-1.767.311c-.38.154-.63.317-.865.552c-.234.234-.397.484-.552.865c-.1.254-.259.663-.311 1.767c-.058 1.28-.072 1.688-.072 4.947s.014 3.667.072 4.947c.052 1.104.211 1.513.311 1.767c.154.38.317.63.552.865c.234.234.484.397.865.552c.254.1.663.259 1.767.311c1.28.058 1.688.072 4.947.072s3.667-.014 4.947-.072c1.104-.052 1.513-.211 1.767-.311c.38-.154.63-.317.865-.552c.234-.234.397-.484.552-.865c.1-.254.259-.663.311-1.767c.058-1.28.072-1.688.072-4.947s-.014-3.667-.072-4.947c-.052-1.104-.211-1.513-.311-1.767c-.154-.38-.317-.63-.552-.865c-.234-.234-.484-.397-.865-.552c-.254-.1-.663-.259-1.767-.311c-1.28-.058-1.688-.072-4.947-.072zm0 4.015c-2.34 0-4.237 1.897-4.237 4.237s1.897 4.237 4.237 4.237s4.237-1.897 4.237-4.237s-1.897-4.237-4.237-4.237zm0 7.015c-1.538 0-2.778-1.24-2.778-2.778s1.24-2.778 2.778-2.778s2.778 1.24 2.778 2.778s-1.24 2.778-2.778 2.778zm5.338-5.959c-.552 0-1 .448-1 1s.448 1 1 1s1-.448 1-1s-.448-1-1-1z"/></svg>