<svg xmlns="http://www.w3.org/2000/svg" width="24" height="24" viewBox="0 0 24 24"><path fill="#0A66C2" d="M20.447 20.452h-3.554v-5.569c0-1.32-.023-3.017-1.83-3.017c-1.831 0-2.109 1.43-2.109 2.939v5.647H9.357V9.77h3.414v1.561h.046c.477-.9 1.637-1.85 3.37-1.85c3.601 0 4.267 2.37 4.267 5.455v6.286zM5.337 7.933c-1.144 0-2.063-.926-2.063-2.065c0-1.138.92-2.063 2.063-2.063c1.14 0 2.064.925 2.064 2.063c0 1.139-.925 2.065-2.064 2.065zm1.782 12.519H3.555V9.77h3.564v10.682zM22.227 0H1.771C.792 0 0 .774 0 1.729v20.542C0 23.227.792 24 1.771 24h20.456C23.208 24 24 23.227 24 22.271V1.729C24 .774 23.208 0 22.227 0z"/></svg>