<svg xmlns="http://www.w3.org/2000/svg" width="24" height="24" viewBox="0 0 24 24"><path fill="#1DA1F2" d="M22.46 6c-.77.35-1.6.58-2.46.69.88-.53 1.56-1.37 1.88-2.37-.83.5-1.75.85-2.72 1.05C18.37 4.5 17.26 4 16 4c-2.35 0-4.27 1.92-4.27 4.29 0 .34.04.67.11.98C8.28 9.09 5.5 7.63 3.6 5.36c-.37.63-.58 1.37-.58 2.17 0 1.49.75 2.81 1.91 3.59-.7-.02-1.37-.2-1.95-.5v.05c0 2.08 1.48 3.81 3.44 4.2-.36.1-.74.15-1.13.15-.28 0-.55-.03-.81-.08.55 1.71 2.14 2.95 4.03 2.98-1.48 1.16-3.35 1.85-5.38 1.85-.35 0-.69-.02-1.03-.06C3.17 20.16 5.32 21 7.64 21c8.93 0 13.07-7.38 13.07-13.77 0-.2-.01-.4-.02-.6.9-.65 1.67-1.47 2.29-2.4z"/></svg>