<svg width="500" height="400" viewBox="0 0 500 400" fill="none" xmlns="http://www.w3.org/2000/svg">
    <defs>
        <linearGradient id="grad1" x1="0%" y1="0%" x2="100%" y2="100%">
            <stop offset="0%" style="stop-color:#42A5F5;stop-opacity:1" />
            <stop offset="100%" style="stop-color:#1E88E5;stop-opacity:1" />
        </linearGradient>
        <linearGradient id="grad2" x1="0%" y1="0%" x2="100%" y2="100%">
            <stop offset="0%" style="stop-color:#90CAF9;stop-opacity:1" />
            <stop offset="100%" style="stop-color:#64B5F6;stop-opacity:1" />
        </linearGradient>
    </defs>
    
    <rect x="50" y="150" width="400" height="200" rx="20" fill="url(#grad2)" opacity="0.1"/>
    
    <g transform="translate(100, 50)">
        <path d="M110 240 L190 240 Q200 240 200 230 L210 180 Q215 160 230 150 L270 140" stroke="url(#grad1)" stroke-width="8" fill="none" stroke-linecap="round"/>
        <path d="M90 240 L10 240 Q0 240 0 230 L-10 180 Q-15 160 -30 150 L-70 140" stroke="url(#grad1)" stroke-width="8" fill="none" stroke-linecap="round"/>
        
        <path d="M-50 160 Q-20 120 80 120 Q180 120 250 160" stroke="#BBDEFB" stroke-width="6" fill="none" stroke-linecap="round" opacity="0.8"/>

        <circle cx="80" cy="200" r="80" fill="#FFFFFF" opacity="0.9"/>
        <path d="M80 150 L60 200 L100 200 Z" fill="#42A5F5"/>
        <path d="M80 250 L60 200 L100 200 Z" fill="#1E88E5" transform="rotate(180 80 200)"/>
    </g>

    <g transform="translate(350, 250)">
        <rect x="0" y="0" width="120" height="80" rx="10" fill="#FFFFFF" style="filter: drop-shadow(0px 4px 10px rgba(0,0,0,0.1));"/>
        <rect x="10" y="10" width="40" height="10" rx="3" fill="#BBDEFB"/>
        <rect x="10" y="30" width="100" height="8" rx="2" fill="#E3F2FD"/>
        <rect x="10" y="45" width="80" height="8" rx="2" fill="#E3F2FD"/>
        <rect x="10" y="60" width="60" height="8" rx="2" fill="#E3F2FD"/>
    </g>
    
    <g transform="translate(40, 100)">
        <rect x="0" y="0" width="80" height="50" rx="8" fill="#FFFFFF" style="filter: drop-shadow(0px 4px 10px rgba(0,0,0,0.1));"/>
        <circle cx="20" cy="25" r="8" fill="#90CAF9"/>
        <rect x="35" y="15" width="35" height="6" rx="2" fill="#E3F2FD"/>
        <rect x="35" y="28" width="25" height="6" rx="2" fill="#E3F2FD"/>
    </g>
</svg> 